<svg width="40" height="40" viewBox="0 0 40 40" fill="none" xmlns="http://www.w3.org/2000/svg">
<g id="icons8-payment-96 1">
<path id="Vector 45" d="M37 13.5H11V24L19.5 19.5L22 22L19 26.5H33L37 24.5V13.5Z" fill="#217419"/>
<path id="Vector" d="M11.9083 22.2C13.2639 21.3917 14.7625 20.4514 16.4041 19.3792C17.3236 18.7764 18.1458 18.4417 18.8708 18.375C21.6458 18.1208 23.7208 20.8542 22.7125 23.4667C22.4708 24.1 21.9986 24.7361 21.2958 25.375C18.6125 27.8111 15.95 30.2306 13.3083 32.6333C11.1458 34.5958 9.0833 34.9125 6.34997 34.95C5.19719 34.9667 4.29442 34.8181 3.64164 34.5042C2.43747 33.9292 1.34997 32.3583 1.6333 30.8875C1.81664 29.9208 2.97497 29.6333 3.68747 30.2667C4.08747 30.625 4.03747 31.1083 4.1583 31.5792C4.21525 31.7985 4.34033 31.9942 4.51554 32.1379C4.69074 32.2817 4.90704 32.3662 5.1333 32.3792C7.48747 32.5208 9.6583 32.575 11.5458 30.8625C14.2764 28.3847 17.0944 25.8097 20 23.1375C20.8666 22.3375 20.45 20.8292 19.2583 20.8625C18.9389 20.8708 18.5639 21.0097 18.1333 21.2792C15.7389 22.7764 13.4666 24.1861 11.3166 25.5083C11.1151 25.6324 10.8848 25.7018 10.6484 25.7098C10.4119 25.7178 10.1774 25.664 9.96803 25.5539C9.75864 25.4437 9.58154 25.2809 9.45417 25.0815C9.3268 24.8821 9.25356 24.653 9.24164 24.4167C9.14719 22.4472 9.12914 20.5042 9.18747 18.5875C9.19303 18.4014 9.10414 18.3278 8.9208 18.3667C7.95414 18.5833 7.20275 19.0403 6.66664 19.7375C6.00275 20.6042 5.29164 21.6167 4.5333 22.775C3.89164 23.7542 4.19164 25.625 4.15414 26.7625C4.12914 27.5153 3.7458 27.9528 3.00414 28.075C2.88192 28.0945 2.76108 28.0847 2.64164 28.0458C2.01664 27.8514 1.6958 27.425 1.67914 26.7667C1.64164 25.1083 1.3958 23.0708 2.33747 21.5833C3.1458 20.3056 3.95275 19.1542 4.7583 18.1292C5.77497 16.8292 7.26664 16.1833 8.9083 15.7417C9.0583 15.7028 9.13747 15.6042 9.1458 15.4458C9.2333 13.7333 8.90414 11.3333 9.38747 9.87918C9.99164 8.05001 11.6125 6.77085 13.5541 6.68335C14.2402 6.65279 14.9139 6.65279 15.575 6.68335C16.675 6.72918 17.1416 8.10418 16.3333 8.82085C15.7583 9.32501 14.4666 9.18335 13.6916 9.18751C12.775 9.19029 12.1736 9.6264 11.8875 10.4958C11.8264 10.682 11.75 10.9167 11.6583 11.2C11.3722 12.0667 11.6861 12.5 12.6 12.5H35.5125C35.6847 12.5 35.7833 12.4153 35.8083 12.2458C36.0333 10.7458 35.4125 9.17501 33.7583 9.17085C29.0639 9.15974 24.4819 9.15974 20.0125 9.17085C19.3375 9.17363 18.8777 8.85974 18.6333 8.22918C18.5889 8.11807 18.575 8.00418 18.5916 7.88751C18.7027 7.05418 19.1777 6.64168 20.0166 6.65001C24.1916 6.69168 28.4041 6.68474 32.6541 6.62918C34.0236 6.61251 35.0916 6.80279 35.8583 7.20001C37.7291 8.16251 38.3958 9.97918 38.3625 12.0417C38.3069 15.3222 38.3083 18.4695 38.3666 21.4833C38.3944 23.05 38.2041 24.2292 37.7958 25.0208C36.8166 26.9083 35.0166 27.5625 32.9416 27.5292C30.5416 27.4847 28.2111 27.4778 25.95 27.5083C25.125 27.5195 24.6416 27.1195 24.5 26.3083C24.475 26.1695 24.493 26.0333 24.5541 25.9C24.818 25.3167 25.2708 25.0208 25.9125 25.0125C28.2736 24.9847 30.7722 24.9861 33.4083 25.0167C34.725 25.0333 35.8125 24.2792 35.8208 22.8708C35.8402 20.4542 35.843 17.9278 35.8291 15.2917C35.8264 15.0972 35.7277 15 35.5333 15H11.7708C11.7014 15 11.6666 15.0347 11.6666 15.1042V22.0625C11.6666 22.2514 11.7472 22.2972 11.9083 22.2Z" fill="white"/>
</g>
</svg>
