<svg width="40" height="40" viewBox="0 0 40 40" fill="none" xmlns="http://www.w3.org/2000/svg">
<g id="icons8-news-96 (2) 1">
<path id="Vector" d="M7.50023 13.0417C7.50856 11.7917 7.5044 10.4917 7.48773 9.14167C7.4544 6.19584 9.4169 4.94167 12.2002 4.96667C16.3586 5.00556 20.3363 5.01945 24.1336 5.00834C24.9391 5.00556 25.3877 5.40417 25.4794 6.20417C25.4933 6.31251 25.4836 6.41945 25.4502 6.52501C25.2641 7.14445 24.8475 7.45556 24.2002 7.45834L11.2419 7.51251C10.9122 7.51361 10.5964 7.64535 10.3637 7.87887C10.1309 8.11239 10.0002 8.42865 10.0002 8.75834V28.7083C10.0002 29.3917 9.66829 29.8167 9.0044 29.9833C8.87384 30.0167 8.74051 30.0153 8.6044 29.9792C7.86829 29.7792 7.50023 29.2972 7.50023 28.5333V16.6208C7.50023 16.032 7.20718 15.7653 6.62106 15.8208L6.0044 15.8792C5.73654 15.9031 5.48725 16.0261 5.30535 16.2242C5.12346 16.4222 5.02208 16.6811 5.02106 16.95C4.99884 21.3695 4.9919 25.5361 5.00023 29.45C5.00856 33.2542 9.05856 32.4208 11.4127 32.5125C12.1516 32.5403 12.5836 32.9181 12.7086 33.6458C12.728 33.7736 12.7211 33.8972 12.6877 34.0167C12.5044 34.6472 12.085 34.9708 11.4294 34.9875C8.03773 35.0875 4.98356 35.4167 3.05023 31.9458C2.62801 31.1875 2.43495 29.7667 2.47106 27.6833C2.52662 24.3333 2.52662 21.0431 2.47106 17.8125C2.42106 14.7333 4.13773 13.2208 7.1794 13.3458C7.39051 13.357 7.49745 13.2556 7.50023 13.0417Z" fill="white"/>
<rect id="Rectangle 349" x="15" y="11" width="16" height="6" fill="#217419"/>
<path id="Vector_2" d="M34.2668 7.61676C34.1161 7.54003 33.9505 7.50005 33.7835 7.5001H30.9502C30.1307 7.5001 29.6821 7.09176 29.6043 6.2751C29.5765 5.95843 29.7182 5.64176 30.0293 5.3251C30.2039 5.14807 30.4382 5.0413 30.6877 5.0251C31.9738 4.95565 33.1307 4.96815 34.1585 5.0626C36.3835 5.26676 37.5418 7.13759 37.5252 9.29176C37.4724 15.3556 37.4752 21.632 37.5335 28.1209C37.5502 29.8654 37.364 31.1209 36.9752 31.8876C35.7252 34.3501 33.6335 35.0584 30.9293 35.0293C26.4154 34.9848 22.1057 34.9779 18.0002 35.0084C17.1779 35.0168 16.7029 34.614 16.5752 33.8001C16.5557 33.6807 16.5654 33.5612 16.6043 33.4418C16.8154 32.8279 17.246 32.5181 17.896 32.5126C22.6432 32.4876 27.2446 32.4904 31.7002 32.5209C33.6418 32.5334 34.996 31.4209 34.996 29.3126C35.0015 22.6598 35.0015 15.8043 34.996 8.74593C34.996 8.2626 34.6918 7.82926 34.2668 7.61676Z" fill="white"/>
<path id="Vector_3" d="M14.9956 13.0832L14.9998 14.3749C14.9998 14.7888 15.2081 14.9971 15.6248 14.9999L17.5498 15.0082C18.3109 15.011 18.7484 15.3888 18.8623 16.1416C18.8817 16.2749 18.8748 16.4055 18.8415 16.5332C18.6804 17.1416 18.2859 17.4569 17.6581 17.4791C16.7165 17.5096 15.7137 17.5152 14.6498 17.4957C11.8206 17.4457 12.529 13.9749 12.5081 12.2582C12.4859 10.7582 13.322 10.011 15.0165 10.0166C20.7026 10.0305 25.7873 10.0207 30.2706 9.98741C31.7665 9.97491 32.5706 11.0957 32.5248 12.5166C32.4665 14.3624 33.1123 17.5291 30.1748 17.5124C27.3581 17.4957 24.4956 17.493 21.5873 17.5041C20.7595 17.5069 20.322 17.0944 20.2748 16.2666C20.2692 16.1832 20.2762 16.1013 20.2956 16.0207C20.4401 15.3457 20.8581 15.0069 21.5498 15.0041L29.5456 14.9957C29.6084 14.9957 29.6705 14.9833 29.7284 14.9592C29.7863 14.9351 29.8388 14.8997 29.883 14.8551C29.9272 14.8106 29.9621 14.7577 29.9857 14.6996C30.0093 14.6415 30.0212 14.5793 30.0206 14.5166L30.004 13.0249C30.0012 12.6805 29.8276 12.5082 29.4831 12.5082L15.5623 12.5124C15.1845 12.5124 14.9956 12.7027 14.9956 13.0832Z" fill="white"/>
<path id="Vector_4" d="M20.4497 20.8216L13.7081 20.8452C13.043 20.8475 12.5058 21.3885 12.5081 22.0535L12.5084 22.1452C12.5108 22.8102 13.0518 23.3475 13.7168 23.3451L20.4584 23.3216C21.1235 23.3193 21.6607 22.7783 21.6584 22.1133L21.6581 22.0216C21.6557 21.3565 21.1147 20.8193 20.4497 20.8216Z" fill="white"/>
<path id="Vector_5" d="M31.2937 20.8364L25.3687 20.8468C24.7082 20.8479 24.1738 21.3843 24.1749 22.0447L24.1751 22.1364C24.1763 22.7968 24.7126 23.3313 25.373 23.3301L31.298 23.3198C31.9584 23.3186 32.4929 22.7823 32.4918 22.1219L32.4916 22.0302C32.4904 21.3698 31.9541 20.8353 31.2937 20.8364Z" fill="white"/>
<path id="Vector_6" d="M20.4497 26.6549L13.7081 26.6784C13.043 26.6807 12.5058 27.2217 12.5081 27.8868L12.5084 27.9784C12.5108 28.6435 13.0518 29.1807 13.7168 29.1784L20.4584 29.1549C21.1235 29.1525 21.6607 28.6115 21.6584 27.9465L21.6581 27.8548C21.6557 27.1898 21.1147 26.6526 20.4497 26.6549Z" fill="white"/>
<path id="Vector_7" d="M31.2956 26.6792H25.3706C24.7102 26.6792 24.1748 27.2146 24.1748 27.875V27.9667C24.1748 28.6271 24.7102 29.1625 25.3706 29.1625H31.2956C31.9561 29.1625 32.4915 28.6271 32.4915 27.9667V27.875C32.4915 27.2146 31.9561 26.6792 31.2956 26.6792Z" fill="white"/>
</g>
</svg>
