<svg width="40" height="40" viewBox="0 0 40 40" fill="none" xmlns="http://www.w3.org/2000/svg">
<g id="icons8-warning-battery-96 1">
<circle id="Ellipse 6" cx="23" cy="30" r="7" fill="#217419"/>
<path id="Vector" d="M16.6833 5.48337C16.4791 4.19587 17.4125 3.22504 18.6958 3.3167C20.3875 3.43337 23.6041 2.5667 23.3375 5.55837C23.3236 5.72781 23.4027 5.8167 23.575 5.82504C24.8166 5.87087 26.1583 5.7042 27.3666 6.0042C29.7583 6.59587 30.8666 8.6292 30.8541 11.0709C30.8236 16.2459 30.8194 21.3 30.8416 26.2334C30.8444 27.0584 30.4361 27.5195 29.6166 27.6167C29.5305 27.6278 29.4444 27.6236 29.3583 27.6042C28.675 27.4486 28.3333 27.0209 28.3333 26.3209V10.4334C28.3333 10.1572 28.2788 9.88383 28.173 9.62877C28.0672 9.37372 27.9122 9.14203 27.7167 8.94697C27.5213 8.75191 27.2893 8.59731 27.034 8.49203C26.7788 8.38674 26.5052 8.33282 26.2291 8.33337C22.3152 8.3417 18.2513 8.33615 14.0375 8.3167C12.4458 8.31254 11.4958 9.3542 11.6708 10.9834C11.8708 12.8292 9.39162 13.1542 9.18745 11.4667C8.89162 9.03754 9.99162 6.97504 12.2458 6.12087C13.4875 5.64587 15.075 5.8667 16.4041 5.82087C16.6236 5.81531 16.7166 5.70281 16.6833 5.48337Z" fill="white"/>
<path id="Vector_2" d="M12.9914 34.85C13.2253 34.9463 13.4758 34.9959 13.7289 34.9958C18.1512 35.0042 22.3234 35.0028 26.2456 34.9917C28.8039 34.9875 28.2498 32.175 28.3414 30.6041C28.3776 29.9986 28.672 29.5708 29.2248 29.3208C29.3526 29.2625 29.4817 29.2403 29.6123 29.2542C30.3539 29.3264 30.7526 29.7333 30.8081 30.475C31.0206 33.2542 30.8081 35.8875 28.0831 37.0792C27.3303 37.4069 26.2998 37.5555 24.9914 37.525C21.9859 37.4555 18.8678 37.4597 15.6373 37.5375C13.8678 37.5819 12.5803 37.4097 11.7748 37.0208C9.67061 36.0042 9.11645 34.15 9.13728 31.8625C9.1845 26.4403 9.19145 21.2986 9.15811 16.4375C9.15552 16.172 9.25221 15.9161 9.42895 15.7208C9.7845 15.3292 10.1331 15.1611 10.4748 15.2167C11.2664 15.35 11.6623 15.818 11.6623 16.6208C11.6651 21.8986 11.6678 27.3417 11.6706 32.95C11.6748 33.7917 12.2123 34.5208 12.9914 34.85Z" fill="white"/>
<path id="Vector_3" d="M20.0428 18.8208L19.9762 18.8207C19.3065 18.8196 18.7627 19.3615 18.7616 20.0311L18.7469 28.4228C18.7457 29.0924 19.2876 29.6362 19.9573 29.6374L20.024 29.6375C20.6936 29.6387 21.2374 29.0967 21.2386 28.4271L21.2532 20.0355C21.2544 19.3658 20.7125 18.822 20.0428 18.8208Z" fill="white"/>
<path id="Vector_4" d="M19.9999 15.8186C20.9134 15.8186 21.654 15.078 21.654 14.1644C21.654 13.2509 20.9134 12.5103 19.9999 12.5103C19.0863 12.5103 18.3457 13.2509 18.3457 14.1644C18.3457 15.078 19.0863 15.8186 19.9999 15.8186Z" fill="white"/>
</g>
</svg>
