<svg width="40" height="40" viewBox="0 0 40 40" fill="none" xmlns="http://www.w3.org/2000/svg">
<g id="icons8-menu-96 1">
<path id="Vector" d="M7.49587 8.03334L7.50003 10.1042C7.50281 10.5875 7.74587 10.8306 8.2292 10.8333L10.8417 10.8375C11.6778 10.8403 12.0695 11.2583 12.0167 12.0917L12.0042 12.2833C11.9653 12.8861 11.6459 13.2125 11.0459 13.2625C9.92364 13.357 8.83892 13.3695 7.7917 13.3C6.69726 13.2306 5.88476 12.7167 5.3542 11.7583C4.7917 10.7375 5.0542 9.45417 4.9917 8.30418C4.88753 6.51251 6.2042 4.99584 8.0292 5.00001C14.0764 5.00001 19.9181 5.00001 25.5542 5.00001C26.3681 5.00001 26.8195 5.40556 26.9084 6.21668C26.9223 6.35279 26.9014 6.48612 26.8459 6.61668C26.6042 7.18334 26.175 7.46806 25.5584 7.47084L8.00837 7.51668C7.87134 7.51779 7.74037 7.57284 7.64426 7.66974C7.54815 7.76663 7.49477 7.89742 7.49587 8.03334Z" fill="white"/>
<path id="Vector_2" d="M31.9794 7.49994H29.8085C29.1669 7.49994 28.8474 7.1791 28.8502 6.53744V6.20827C28.853 5.49716 29.2085 5.10688 29.9169 5.03744C30.9447 4.93744 31.8794 4.95966 32.721 5.1041C34.2419 5.3666 35.071 6.8916 35.0252 8.39577C34.9752 10.0791 35.271 11.9583 33.5669 12.9083C33.0002 13.2249 32.1891 13.3763 31.1335 13.3624C25.6197 13.2985 20.2419 13.2888 15.0002 13.3333C14.7059 13.3355 14.4207 13.2312 14.1972 13.0398C13.9736 12.8484 13.8267 12.5827 13.7835 12.2916C13.7697 12.2055 13.7683 12.1194 13.7794 12.0333C13.8905 11.2333 14.3502 10.8333 15.1585 10.8333H31.9794C32.3294 10.8333 32.503 10.6583 32.5002 10.3083V8.02077C32.5002 7.67355 32.3266 7.49994 31.9794 7.49994Z" fill="white"/>
<rect id="Rectangle 350" x="6" y="17" width="27" height="6" fill="#217419"/>
<path id="Vector_3" d="M7.49188 18.9708L7.50438 20.9417C7.50716 21.425 7.75022 21.6667 8.23355 21.6667H10.9627C11.7877 21.6667 12.2377 22.0778 12.3127 22.9C12.3405 23.2 12.2266 23.5014 11.971 23.8042C11.8842 23.9067 11.7768 23.99 11.6556 24.0488C11.5343 24.1076 11.402 24.1407 11.2669 24.1459C10.0919 24.1931 8.95577 24.1903 7.85855 24.1375C5.98772 24.05 4.87938 22.5542 4.97938 20.7417C5.07938 18.9167 4.66688 17.2667 6.56688 16.2042C7.03911 15.9403 7.96966 15.8083 9.35855 15.8083C14.8835 15.8111 20.0544 15.8431 24.871 15.9042C25.2988 15.9097 25.6085 16.2167 25.8002 16.825C25.8308 16.9139 25.8419 17.0042 25.8335 17.0958C25.7697 17.9014 25.3335 18.3056 24.5252 18.3083L8.11272 18.3458C7.69605 18.3486 7.48911 18.557 7.49188 18.9708Z" fill="white"/>
<path id="Vector_4" d="M31.979 18.3333H29.3956C28.6623 18.3333 28.1803 17.9861 27.9498 17.2917C27.9081 17.1667 27.9012 17.0403 27.929 16.9125C28.0706 16.282 28.4637 15.9417 29.1081 15.8917C30.0637 15.8222 31.0498 15.8042 32.0665 15.8375C33.954 15.9042 35.0706 17.3833 35.0206 19.1958C34.9748 20.8833 35.2915 22.6917 33.6248 23.7042C33.1026 24.0208 32.4984 24.1778 31.8123 24.175C26.4262 24.1695 20.9401 24.1625 15.354 24.1542C15.1938 24.154 15.0354 24.1209 14.8887 24.0569C14.7419 23.9928 14.6099 23.8993 14.5008 23.782C14.3918 23.6648 14.308 23.5263 14.2548 23.3753C14.2016 23.2243 14.18 23.0639 14.1915 22.9042L14.2081 22.7208C14.2281 22.4455 14.3516 22.1879 14.554 21.9994C14.7564 21.8109 15.0227 21.7055 15.2998 21.7042L31.9915 21.6542C32.3359 21.6542 32.5081 21.4806 32.5081 21.1333L32.4998 18.8542C32.497 18.507 32.3234 18.3333 31.979 18.3333Z" fill="white"/>
<path id="Vector_5" d="M7.49144 29.8042L7.50394 31.7751C7.50671 32.2556 7.74977 32.4973 8.2331 32.5001L11.1206 32.5042C11.9289 32.5042 12.3887 32.9056 12.4998 33.7084C12.5137 33.8139 12.5039 33.9167 12.4706 34.0167C12.24 34.7028 11.7623 35.0306 11.0373 35.0001C9.6706 34.9459 7.76227 35.2917 6.51644 34.5959C4.7706 33.6209 4.97894 31.9417 4.96227 30.2667C4.9456 28.2626 5.94977 26.6709 8.1206 26.6626C11.7984 26.6431 17.2637 26.6639 24.5164 26.7251C24.9553 26.7278 25.272 27.0403 25.4664 27.6626C25.497 27.7598 25.5067 27.857 25.4956 27.9542C25.4095 28.757 24.9637 29.1584 24.1581 29.1584L8.11227 29.1792C7.6956 29.1792 7.48866 29.3876 7.49144 29.8042Z" fill="white"/>
<path id="Vector_6" d="M32.5082 29.7959C32.5082 29.3792 32.2985 29.1695 31.8791 29.1667H28.5041C27.6485 29.1667 27.2416 28.7375 27.2832 27.8792L27.2916 27.7709C27.3221 27.1375 27.6541 26.7959 28.2874 26.7459C29.6124 26.6431 30.9277 26.625 32.2332 26.6917C33.3249 26.75 34.1319 27.2834 34.6541 28.2917C35.1999 29.3417 35.0041 30.8167 34.9832 31.9834C34.9499 33.8125 33.6832 34.9959 31.9207 35C25.9069 35.0056 20.3582 35.0042 15.2749 34.9959C15.1071 34.9957 14.942 34.9542 14.7944 34.8749C14.6468 34.7957 14.5213 34.6812 14.4291 34.5417C14.168 34.1445 14.1027 33.7167 14.2332 33.2584C14.2946 33.0468 14.4225 32.8609 14.5976 32.7286C14.7727 32.5963 14.9855 32.5249 15.2041 32.525L31.8874 32.4917C32.3069 32.4917 32.5152 32.282 32.5124 31.8625L32.5082 29.7959Z" fill="white"/>
</g>
</svg>
