<svg width="40" height="40" viewBox="0 0 40 40" fill="none" xmlns="http://www.w3.org/2000/svg">
<g id="icons8-car-96 (2) 1">
<rect id="Rectangle 348" x="5" y="16.6667" width="30" height="11.6667" fill="#217419"/>
<path id="Vector" d="M6.0377 15.0334C5.55019 14.9834 5.0752 15.0751 4.66686 14.7334C4.15575 14.3029 4.03492 13.8015 4.30436 13.2293C4.7877 12.2001 6.34186 12.4876 7.27103 12.5209C7.44325 12.5265 7.55853 12.4487 7.61686 12.2876C8.00853 11.2043 8.37797 10.0834 8.7252 8.9251C9.69603 5.6626 11.6044 4.09593 14.9752 4.14593C16.7807 4.17371 18.4585 4.18066 20.0085 4.16677C20.6752 4.16121 21.1488 4.46121 21.4294 5.06677C21.4877 5.18899 21.5099 5.31538 21.496 5.44593C21.396 6.2626 20.9349 6.66955 20.1127 6.66677C18.2488 6.66399 16.3613 6.66399 14.4502 6.66677C12.9141 6.67232 11.9044 7.3876 11.421 8.8126C10.8905 10.3765 10.321 12.0876 9.7127 13.9459C9.70484 13.9715 9.70294 13.9986 9.70717 14.0249C9.7114 14.0513 9.72163 14.0763 9.73704 14.0977C9.75245 14.1192 9.7726 14.1367 9.79588 14.1487C9.81915 14.1607 9.84489 14.1669 9.87103 14.1668H30.3127C30.3283 14.1671 30.3438 14.1635 30.3577 14.1565C30.3716 14.1495 30.3836 14.1391 30.3927 14.1264C30.4017 14.1137 30.4075 14.0989 30.4095 14.0835C30.4116 14.068 30.4098 14.0522 30.4044 14.0376C29.8321 12.3237 29.2613 10.6015 28.6919 8.87094C28.2446 7.50427 27.2919 6.76538 25.8335 6.65427C25.0669 6.59594 24.2169 5.78343 24.6877 4.95843C25.0016 4.40843 25.4752 4.15288 26.1085 4.19177C30.7877 4.47927 31.2085 8.8251 32.4669 12.3001C32.5224 12.4612 32.6363 12.5362 32.8085 12.5251C33.4419 12.4834 34.0696 12.4807 34.6919 12.5168C36.0127 12.5876 36.2419 14.4084 35.0085 14.9126C34.6752 15.0459 34.296 14.9918 33.9377 15.0043C33.6766 15.0154 33.6516 15.0973 33.8627 15.2501C35.7183 16.6084 36.6488 18.3376 36.6544 20.4376C36.6627 24.2987 36.6669 28.1154 36.6669 31.8876C36.6669 34.1126 34.9877 35.1626 32.9252 35.0126C31.646 34.9168 30.3002 35.2376 29.1335 34.6584C28.121 34.1584 27.4544 33.1376 27.4835 32.0001C27.5113 30.8695 27.5141 29.732 27.4919 28.5876C27.4891 28.4458 27.5147 28.3048 27.5673 28.173C27.6199 28.0412 27.6983 27.9211 27.798 27.8199C27.8978 27.7186 28.0167 27.6382 28.148 27.5833C28.2793 27.5284 28.4203 27.5001 28.5627 27.5001H33.8794C34.0877 27.5001 34.1891 27.3959 34.1835 27.1876C34.1391 25.3904 34.1419 23.5473 34.1919 21.6584C34.2752 18.6001 33.096 16.6334 29.8377 16.6459C23.1099 16.6793 16.4377 16.682 9.82103 16.6543C8.40436 16.6501 7.0877 17.2751 6.35436 18.5376C5.46686 20.0751 5.90853 22.6793 5.80853 24.5251C5.77519 25.1251 5.46964 25.5098 4.89186 25.6793C4.77797 25.7126 4.66131 25.7237 4.54186 25.7126C3.74186 25.6404 3.34047 25.2029 3.3377 24.4001C3.3252 20.8876 2.79186 17.5876 6.1002 15.2793C6.29742 15.1404 6.27658 15.0584 6.0377 15.0334ZM34.1791 30.5111C34.1794 30.4438 34.1665 30.377 34.1411 30.3147C34.1157 30.2524 34.0782 30.1957 34.0309 30.1479C33.9835 30.1 33.9272 30.062 33.8652 30.0359C33.8031 30.0098 33.7365 29.9962 33.6692 29.9959L30.5193 29.9794C30.452 29.979 30.3853 29.9919 30.323 30.0173C30.2606 30.0428 30.2039 30.0802 30.1561 30.1276C30.1083 30.1749 30.0702 30.2312 30.0441 30.2933C30.0181 30.3553 30.0045 30.4219 30.0041 30.4892L29.9963 31.9725C29.996 32.0398 30.0089 32.1065 30.0343 32.1688C30.0597 32.2311 30.0972 32.2878 30.1445 32.3357C30.1919 32.3835 30.2482 32.4216 30.3102 32.4476C30.3723 32.4737 30.4388 32.4873 30.5062 32.4877L33.6561 32.5042C33.7234 32.5045 33.7901 32.4916 33.8524 32.4662C33.9148 32.4408 33.9714 32.4033 34.0193 32.356C34.0671 32.3086 34.1052 32.2523 34.1312 32.1903C34.1573 32.1282 34.1709 32.0617 34.1713 31.9944L34.1791 30.5111Z" fill="white"/>
<path id="Vector_2" d="M10.8334 23.3208C11.7469 23.3208 12.4875 22.5802 12.4875 21.6666C12.4875 20.753 11.7469 20.0125 10.8334 20.0125C9.91979 20.0125 9.1792 20.753 9.1792 21.6666C9.1792 22.5802 9.91979 23.3208 10.8334 23.3208Z" fill="white"/>
<path id="Vector_3" d="M29.1669 23.3208C30.0804 23.3208 30.821 22.5802 30.821 21.6666C30.821 20.753 30.0804 20.0125 29.1669 20.0125C28.2533 20.0125 27.5127 20.753 27.5127 21.6666C27.5127 22.5802 28.2533 23.3208 29.1669 23.3208Z" fill="white"/>
<path id="Vector_4" d="M22.9459 22.5042H17.0543C16.3892 22.5042 15.8501 23.0433 15.8501 23.7083V23.7917C15.8501 24.4567 16.3892 24.9958 17.0543 24.9958H22.9459C23.611 24.9958 24.1501 24.4567 24.1501 23.7917V23.7083C24.1501 23.0433 23.611 22.5042 22.9459 22.5042Z" fill="white"/>
<path id="Vector_5" d="M12.4832 30.3375C12.5624 31.9875 12.6541 33.6792 11.0207 34.5917C9.83741 35.25 7.73741 35.0125 6.35407 34.975C4.22491 34.9208 3.22491 33.3833 3.31241 31.3833C3.3513 30.4806 3.35685 29.6125 3.32907 28.7792C3.29852 27.9264 3.70963 27.5 4.56241 27.5H23.4832C24.3277 27.5 24.7777 27.9208 24.8332 28.7625C24.8388 28.8347 24.8332 28.9056 24.8166 28.975C24.6555 29.6583 24.2249 30 23.5249 30H12.8082C12.5805 30 12.4721 30.1125 12.4832 30.3375ZM10.0207 30.55C10.0207 30.4041 9.96279 30.2642 9.85965 30.1611C9.7565 30.0579 9.61661 30 9.47074 30H6.38741C6.24154 30 6.10164 30.0579 5.9985 30.1611C5.89535 30.2642 5.83741 30.4041 5.83741 30.55V31.9417C5.83741 32.0139 5.85163 32.0854 5.87927 32.1521C5.90691 32.2189 5.94743 32.2795 5.9985 32.3306C6.04957 32.3816 6.1102 32.4222 6.17693 32.4498C6.24366 32.4774 6.31518 32.4917 6.38741 32.4917H9.47074C9.54297 32.4917 9.61449 32.4774 9.68122 32.4498C9.74794 32.4222 9.80858 32.3816 9.85965 32.3306C9.91072 32.2795 9.95123 32.2189 9.97887 32.1521C10.0065 32.0854 10.0207 32.0139 10.0207 31.9417V30.55Z" fill="white"/>
</g>
</svg>
