<svg width="40" height="40" viewBox="0 0 40 40" fill="none" xmlns="http://www.w3.org/2000/svg">
<g id="icons8-marker-storm-96 1">
<path id="Vector" d="M29.1333 6.65841C35.7583 12.2334 35.6625 21.6709 29.775 27.7501C29.2361 28.3084 28.6458 28.3709 28.0041 27.9376C27.9125 27.8765 27.8389 27.7973 27.7833 27.7001C27.4472 27.114 27.5028 26.5681 27.95 26.0626C28.9916 24.8876 29.9875 23.6667 30.6125 22.2376C34.7375 12.7542 26.0791 3.49591 16.325 6.38757C15.5778 6.60979 15.0319 6.37229 14.6875 5.67507C14.6375 5.57507 14.6125 5.46952 14.6125 5.35841C14.6041 4.72507 14.8972 4.29591 15.4916 4.07091C20.0833 2.32507 25.55 3.64591 29.1333 6.65841Z" fill="white"/>
<path id="Vector_2" d="M19.0877 33.8041C19.2038 33.9243 19.3432 34.0196 19.4974 34.0843C19.6516 34.1491 19.8174 34.1818 19.9849 34.1807C20.1523 34.1795 20.3179 34.1444 20.4716 34.0775C20.6253 34.0107 20.764 33.9134 20.8793 33.7916L23.9543 30.5332C24.0544 30.4294 24.1744 30.347 24.3069 30.2911C24.4394 30.2352 24.5817 30.207 24.7252 30.2082C25.1307 30.2166 25.439 30.3374 25.6502 30.5707C26.1779 31.1624 26.1779 31.7555 25.6502 32.3499C23.1335 35.1749 20.4627 39.0082 16.5502 34.8124C13.9974 32.0763 11.6057 29.4332 9.37515 26.8832C4.47098 21.2749 4.77515 13.2416 9.63765 7.79991C10.1849 7.1888 10.796 7.11519 11.471 7.57908C11.5738 7.6513 11.6543 7.74436 11.7127 7.85824C12.0154 8.43602 11.9488 8.96658 11.5127 9.44991C7.41265 14.0041 7.24598 20.5749 11.2502 25.2166C13.8807 28.2666 16.4932 31.1291 19.0877 33.8041Z" fill="white"/>
<path id="Vector 46" d="M19.5 10.5L16.5 18L17.5 19V23L18.5 25L25 17V15.5L23.5 14.5L24.5 11L23 10.5H19.5Z" fill="#217419"/>
<path id="Vector_3" d="M17.5791 17.5209C18.9333 17.4584 20.5333 17.55 19.8333 19.5C19.5083 20.4 19.1985 21.2542 18.9041 22.0625C18.8235 22.2903 18.8958 22.3584 19.1208 22.2667C20.3166 21.7959 21.1583 23.4292 20.3208 24.3709C19.5041 25.2875 18.5083 26.4 17.1499 25.9125C14.5416 24.975 16.3666 21.8917 16.8999 20.2959C16.961 20.1153 16.8972 20.0112 16.7083 19.9834C15.0541 19.7459 14.1874 18.3375 14.8791 16.8209C15.9124 14.5459 16.9027 12.3959 17.8499 10.3709C18.2583 9.50004 19.1208 9.14171 20.0666 9.15004C21.5277 9.15838 22.8485 9.17366 24.0291 9.19588C24.793 9.20977 25.3708 9.52504 25.7624 10.1417C26.6374 11.5334 25.6249 12.725 24.8833 13.8667C24.761 14.0556 24.811 14.1556 25.0333 14.1667C27.1666 14.2792 28.0416 16.4667 26.5499 17.9625C25.4222 19.0987 24.3902 20.157 23.4541 21.1375C22.8902 21.7292 22.2833 21.7764 21.6333 21.2792C21.536 21.2042 21.461 21.1098 21.4083 20.9959C21.1277 20.3848 21.2222 19.8389 21.6916 19.3584L24.1333 16.85C24.1453 16.8383 24.1538 16.8233 24.1576 16.8069C24.1613 16.7905 24.1603 16.7734 24.1546 16.7576C24.1489 16.7417 24.1387 16.7279 24.1253 16.7177C24.1119 16.7075 24.0959 16.7014 24.0791 16.7C23.3499 16.6167 22.4166 16.8459 21.7958 16.425C21.0708 15.9334 21.1666 15.1459 21.5833 14.4959C22.1777 13.5653 22.736 12.6528 23.2583 11.7584C23.2634 11.7495 23.2661 11.7395 23.2661 11.7293C23.2661 11.7191 23.2635 11.7091 23.2584 11.7003C23.2533 11.6914 23.2461 11.684 23.2373 11.6789C23.2285 11.6737 23.2185 11.671 23.2083 11.6709L20.1249 11.6625C20.0416 11.6625 19.9819 11.7014 19.9458 11.7792L17.4124 17.275C17.3319 17.4473 17.3874 17.5292 17.5791 17.5209Z" fill="white"/>
</g>
</svg>
