<svg width="40" height="40" viewBox="0 0 40 40" fill="none" xmlns="http://www.w3.org/2000/svg">
<g id="icons8-credit-card-contactless-96 1">
<ellipse id="Ellipse 5" cx="10.4167" cy="19.9999" rx="7.91667" ry="11.6667" fill="#217419"/>
<path id="Vector" d="M5.18324 11.9334C5.062 12.2585 4.99991 12.6014 4.99991 12.9459C4.99713 17.357 4.99852 21.9848 5.00408 26.8292C5.00824 29.0709 6.44574 30.0292 8.47491 30.0167C14.611 29.9834 20.4513 29.9806 25.9957 30.0084C26.6763 30.0111 27.1027 30.3403 27.2749 30.9959C27.3721 31.3709 27.2485 31.7584 26.9041 32.1584C26.8061 32.2731 26.6841 32.365 26.5467 32.4276C26.4092 32.4902 26.2595 32.5221 26.1082 32.5209C20.511 32.4764 15.0805 32.482 9.81658 32.5375C7.83047 32.557 6.47074 32.3875 5.73741 32.0292C3.09991 30.7417 2.42908 28.6375 2.47074 25.7917C2.52908 21.9945 2.52908 18.3473 2.47074 14.85C2.43741 12.8389 2.61519 11.4431 3.00408 10.6625C3.95686 8.74309 5.51658 7.69448 7.68324 7.5167C8.28324 7.46948 8.74019 7.70281 9.05408 8.2167C9.58741 9.10004 8.72491 9.92504 7.87074 9.99587C6.52074 10.107 5.62491 10.7528 5.18324 11.9334Z" fill="white"/>
<path id="Vector_2" d="M33.0084 10.1542C32.7105 10.0522 32.3966 10.0001 32.0793 10H12.1834C11.8968 10.0001 11.6212 9.89133 11.4126 9.69588C11.0543 9.36255 10.9001 9.02922 10.9501 8.69588C11.0751 7.87088 11.5543 7.46394 12.3876 7.47505C18.1459 7.53616 23.9598 7.53199 29.8293 7.46255C32.1265 7.43477 33.6695 7.6306 34.4584 8.05005C36.9209 9.36672 37.5918 11.475 37.5334 14.2292C37.4584 17.682 37.457 21.0612 37.5293 24.3667C37.5848 26.8 37.4168 28.4264 37.0251 29.2459C36.1029 31.182 34.5376 32.2681 32.3293 32.5042C32.1197 32.526 31.9088 32.4885 31.7209 32.3959C31.1432 32.1126 30.8473 31.7917 30.8334 31.4334C30.8001 30.5445 31.239 30.0653 32.1501 29.9959C33.9834 29.8542 35.0084 28.5792 35.0043 26.825C35.0015 22.1723 35.0015 17.6417 35.0043 13.2334C35.0043 11.6445 34.339 10.6181 33.0084 10.1542Z" fill="white"/>
<path id="Vector_3" d="M30.6042 24.8667C30.2542 25.6805 29.8084 26.4 29.2667 27.025C28.9028 27.4444 28.4514 27.5847 27.9125 27.4458C27.7764 27.4097 27.6584 27.3472 27.5584 27.2583C26.9834 26.75 26.907 26.1778 27.3292 25.5417C29.7764 21.8528 29.7722 18.1472 27.3167 14.425C26.9639 13.8861 26.9972 13.3736 27.4167 12.8875C27.6861 12.5792 28.0847 12.4597 28.6125 12.5292C28.7608 12.5488 28.9034 12.5993 29.0311 12.6775C29.1589 12.7558 29.2689 12.8599 29.3542 12.9833C31.9431 16.7917 32.3597 20.7528 30.6042 24.8667Z" fill="white"/>
<path id="Vector_4" d="M12.4708 14.1724L9.21246 14.161C8.27128 14.1577 7.50564 14.918 7.50235 15.8592L7.49764 17.2092C7.49435 18.1504 8.25467 18.916 9.19585 18.9193L12.4542 18.9307C13.3953 18.9339 14.161 18.1736 14.1643 17.2324L14.169 15.8825C14.1723 14.9413 13.4119 14.1756 12.4708 14.1724Z" fill="white"/>
<path id="Vector_5" d="M24.0292 22.9416C25.3376 20.9208 25.2917 18.9333 24.0084 17.0541C22.9709 15.5374 25.0917 14.1583 26.0584 15.6166C27.939 18.4444 27.9681 21.3346 26.1459 24.2874C26.0369 24.4621 25.8829 24.6045 25.7001 24.6999C25.0945 25.0055 24.6362 25.0333 24.3251 24.7833C23.6751 24.2583 23.5765 23.6444 24.0292 22.9416Z" fill="white"/>
<path id="Vector_6" d="M20.7458 19.6875C19.4833 17.9333 22.0499 16.4416 22.9749 18.5208C23.4888 19.6736 23.4166 20.7805 22.7583 21.8416C22.0583 22.9666 20.4583 22.5541 20.4166 21.2583C20.4041 20.7833 20.7041 20.5166 20.8208 20.0875C20.8597 19.943 20.8347 19.8097 20.7458 19.6875Z" fill="white"/>
</g>
</svg>
