<svg width="40" height="40" viewBox="0 0 40 40" fill="none" xmlns="http://www.w3.org/2000/svg">
<g id="icons8-charging-low-battery-96 (2) 1">
<rect id="Rectangle 347" x="10.8335" y="27.5" width="19.1667" height="7.5" fill="#217419"/>
<path id="Vector" d="M19.8915 21.6709L15.6207 21.6667C15.5163 21.667 15.4139 21.6387 15.3246 21.5849C15.2352 21.5311 15.1623 21.4538 15.1138 21.3615C15.0653 21.2692 15.043 21.1653 15.0493 21.0612C15.0557 20.9571 15.0904 20.8567 15.1498 20.7709L20.6707 12.7501C20.7279 12.667 20.8077 12.6023 20.9001 12.5639C20.9926 12.5254 21.0938 12.5148 21.1915 12.5334C21.6832 12.6292 21.729 13.0626 21.5998 13.4626C21.0804 15.0515 20.5595 16.6306 20.0373 18.2001C20.0327 18.2152 20.0315 18.2311 20.034 18.2466C20.0364 18.2622 20.0423 18.2768 20.0512 18.2894C20.0602 18.302 20.0719 18.3122 20.0854 18.3191C20.0989 18.326 20.1138 18.3295 20.129 18.3293L24.3582 18.3376C24.5009 18.3375 24.638 18.3861 24.7457 18.4751C25.0068 18.6862 25.047 18.9251 24.8665 19.1918C23.3804 21.3723 21.9054 23.5181 20.4415 25.6292C20.4288 25.6492 20.4215 25.6722 20.4203 25.6959C20.4191 25.7196 20.424 25.743 20.4346 25.7638C20.4452 25.7846 20.4611 25.802 20.4806 25.8143C20.5002 25.8265 20.5226 25.8331 20.5457 25.8334H28.1415C28.1912 25.8334 28.2389 25.8137 28.2741 25.7785C28.3092 25.7433 28.329 25.6956 28.329 25.6459C28.3401 20.5459 28.3387 15.5042 28.3248 10.5209C28.3207 9.21258 27.3998 8.32508 26.1498 8.32925C22.197 8.33481 18.0957 8.33619 13.8457 8.33342C12.3832 8.32925 11.5957 9.43342 11.6457 10.8167C11.6845 11.9751 11.6873 13.0445 11.654 14.0251C11.6318 14.6473 11.3359 15.0848 10.7665 15.3376C10.6332 15.3959 10.4984 15.4126 10.3623 15.3876C9.55954 15.2515 9.16371 14.7751 9.17482 13.9584C9.19982 12.2376 8.89565 10.0626 9.60399 8.53758C10.5915 6.40842 12.5082 5.71675 14.7373 5.82508C15.3123 5.85286 15.879 5.85147 16.4373 5.82092C16.604 5.81258 16.679 5.72508 16.6623 5.55842C16.5457 4.30425 17.2457 3.28758 18.529 3.31675C19.5234 3.33897 20.4845 3.33758 21.4123 3.31258C22.7082 3.27508 23.4873 4.23758 23.3165 5.52508C23.2915 5.70842 23.372 5.80564 23.5582 5.81675C24.172 5.85008 24.8151 5.85286 25.4873 5.82508C28.8665 5.68342 30.8665 7.75842 30.854 11.0792C30.8262 16.7015 30.8207 22.0292 30.8373 27.0626C30.8379 27.2293 30.8055 27.3944 30.7421 27.5486C30.6787 27.7028 30.5855 27.8429 30.4678 27.9609C30.3501 28.079 30.2103 28.1727 30.0564 28.2366C29.9024 28.3005 29.7373 28.3334 29.5707 28.3334H11.879C11.8522 28.3334 11.8256 28.3387 11.8009 28.349C11.7761 28.3592 11.7536 28.3743 11.7346 28.3932C11.7157 28.4122 11.7006 28.4347 11.6904 28.4594C11.6801 28.4842 11.6748 28.5108 11.6748 28.5376C11.6609 30.0042 11.6609 31.4445 11.6748 32.8584C11.6873 34.2542 12.7123 35.0167 14.0082 35.0084C18.1915 34.9945 22.2304 34.9931 26.1248 35.0042C28.0415 35.0084 28.3707 33.5209 28.3248 31.9751C28.2748 30.3542 30.5582 30.1084 30.7748 31.6084C31.2457 34.8209 29.3457 37.4917 25.9873 37.4959C22.354 37.5015 18.5054 37.5056 14.4415 37.5084C11.0415 37.5084 9.11649 35.6042 9.14149 32.2209C9.1776 27.6181 9.18454 23.2709 9.16232 19.1792C9.15954 18.3737 9.55537 17.9098 10.3498 17.7876C10.697 17.732 11.0387 17.8792 11.3748 18.2292C11.562 18.4244 11.6665 18.6827 11.6665 18.9501V25.5209C11.6665 25.6038 11.6994 25.6833 11.758 25.7419C11.8166 25.8005 11.8961 25.8334 11.979 25.8334H18.5123C18.5984 25.8334 18.6554 25.7931 18.6832 25.7126L19.9623 21.7668C19.9663 21.7561 19.9676 21.7446 19.9659 21.7334C19.9642 21.7221 19.9598 21.7113 19.9528 21.7019C19.9459 21.6925 19.9367 21.6848 19.926 21.6794C19.9153 21.674 19.9035 21.6711 19.8915 21.6709Z" fill="white"/>
</g>
</svg>
